<svg width="20" height="20" viewBox="0 0 20 20" fill="none" xmlns="http://www.w3.org/2000/svg">
<g clip-path="url(#clip0_1157_272)">
<path d="M19 16.4988V16.5V19H1V16.5C1 15.9734 1.13288 15.5044 1.39924 15.0715C1.67044 14.6306 2.01908 14.3058 2.45452 14.0783C3.67981 13.4663 4.91892 13.0102 6.17259 12.707C7.42896 12.4031 8.70441 12.2508 10.0006 12.25C11.2962 12.25 12.571 12.4023 13.8268 12.7068C15.0811 13.011 16.3208 13.4673 17.5465 14.0788C17.9821 14.3054 18.3306 14.6297 18.6017 15.0709C18.8683 15.5049 19.0006 15.9737 19 16.4988ZM10 9C8.89232 9 7.96898 8.61727 7.17586 7.82414C6.38273 7.03102 6 6.10768 6 5C6 3.89232 6.38273 2.96898 7.17586 2.17586C7.96898 1.38273 8.89232 1 10 1C11.1077 1 12.031 1.38273 12.8241 2.17586C13.6173 2.96898 14 3.89232 14 5C14 6.10768 13.6173 7.03102 12.8241 7.82414C12.031 8.61727 11.1077 9 10 9Z" stroke="#80ABFF" stroke-width="2"/>
</g>
<defs>
<clipPath id="clip0_1157_272">
<rect width="20" height="20" fill="white"/>
</clipPath>
</defs>
</svg>
