<svg width="20" height="20" viewBox="0 0 20 20" fill="none" xmlns="http://www.w3.org/2000/svg">
<path d="M13 5H7M13 9H7M13 13H9M3 1H17V19L15.968 18.116C15.6055 17.8053 15.1439 17.6346 14.6665 17.6346C14.1891 17.6346 13.7275 17.8053 13.365 18.116L12.333 19L11.302 18.116C10.9395 17.8051 10.4776 17.6342 10 17.6342C9.52239 17.6342 9.06054 17.8051 8.698 18.116L7.667 19L6.635 18.116C6.27253 17.8053 5.81088 17.6346 5.3335 17.6346C4.85611 17.6346 4.39447 17.8053 4.032 18.116L3 19V1Z" stroke="#80ABFF" stroke-width="1.5" stroke-linecap="round" stroke-linejoin="round"/>
</svg>
