<svg width="25" height="26" viewBox="0 0 25 26" fill="none" xmlns="http://www.w3.org/2000/svg">
<path d="M12.9697 3.5C9.12184 3.5 6 6.45159 6 10.0869C6 14.2698 10.6465 20.8985 12.3526 23.188C12.4234 23.2846 12.5162 23.3633 12.6235 23.4175C12.7307 23.4717 12.8494 23.5 12.9697 23.5C13.09 23.5 13.2087 23.4717 13.3159 23.4175C13.4232 23.3633 13.516 23.2846 13.5868 23.188C15.2929 20.8994 19.9394 14.2731 19.9394 10.0869C19.9394 6.45159 16.8176 3.5 12.9697 3.5Z" stroke="black" stroke-width="2" stroke-linecap="round" stroke-linejoin="round"/>
<path d="M12.9689 12.5908C14.1404 12.5908 15.0901 11.6411 15.0901 10.4696C15.0901 9.29809 14.1404 8.34839 12.9689 8.34839C11.7974 8.34839 10.8477 9.29809 10.8477 10.4696C10.8477 11.6411 11.7974 12.5908 12.9689 12.5908Z" stroke="black" stroke-width="2" stroke-linecap="round" stroke-linejoin="round"/>
</svg>
