<svg width="20" height="20" viewBox="0 0 20 20" fill="none" xmlns="http://www.w3.org/2000/svg">
<g clip-path="url(#clip0_1157_293)">
<path d="M2 17.0001V15.0001H4V8.00006C4 6.61673 4.41667 5.38773 5.25 4.31306C6.08333 3.23839 7.16667 2.53406 8.5 2.20006V1.50006C8.5 1.08339 8.646 0.729394 8.938 0.438061C9.23 0.146728 9.584 0.000727702 10 6.10352e-05C10.4167 6.10352e-05 10.771 0.146061 11.063 0.438061C11.355 0.730061 11.5007 1.08406 11.5 1.50006V2.20006C12.8333 2.53339 13.9167 3.23773 14.75 4.31306C15.5833 5.38839 16 6.61739 16 8.00006V15.0001H18V17.0001H2ZM10 20.0001C9.45 20.0001 8.97933 19.8044 8.588 19.4131C8.19667 19.0217 8.00067 18.5507 8 18.0001H12C12 18.5501 11.8043 19.0211 11.413 19.4131C11.0217 19.8051 10.5507 20.0007 10 20.0001ZM6 15.0001H14V8.00006C14 6.90006 13.6083 5.95839 12.825 5.17506C12.0417 4.39173 11.1 4.00006 10 4.00006C8.9 4.00006 7.95833 4.39173 7.175 5.17506C6.39167 5.95839 6 6.90006 6 8.00006V15.0001Z" fill="black"/>
</g>
<defs>
<clipPath id="clip0_1157_293">
<rect width="20" height="20" fill="white"/>
</clipPath>
</defs>
</svg>
