<svg width="26" height="28" viewBox="0 0 26 28" fill="none" xmlns="http://www.w3.org/2000/svg">
<g clip-path="url(#clip0_1163_3574)">
<path fill-rule="evenodd" clip-rule="evenodd" d="M0 6.5625C0 6.2144 0.128404 5.88056 0.356964 5.63442C0.585524 5.38828 0.895517 5.25 1.21875 5.25H24.7812C25.1045 5.25 25.4145 5.38828 25.643 5.63442C25.8716 5.88056 26 6.2144 26 6.5625C26 6.9106 25.8716 7.24444 25.643 7.49058C25.4145 7.73672 25.1045 7.875 24.7812 7.875H1.21875C0.895517 7.875 0.585524 7.73672 0.356964 7.49058C0.128404 7.24444 0 6.9106 0 6.5625ZM0 14C0 13.6519 0.128404 13.3181 0.356964 13.0719C0.585524 12.8258 0.895517 12.6875 1.21875 12.6875H24.7812C25.1045 12.6875 25.4145 12.8258 25.643 13.0719C25.8716 13.3181 26 13.6519 26 14C26 14.3481 25.8716 14.6819 25.643 14.9281C25.4145 15.1742 25.1045 15.3125 24.7812 15.3125H1.21875C0.895517 15.3125 0.585524 15.1742 0.356964 14.9281C0.128404 14.6819 0 14.3481 0 14ZM1.21875 20.125C0.895517 20.125 0.585524 20.2633 0.356964 20.5094C0.128404 20.7556 0 21.0894 0 21.4375C0 21.7856 0.128404 22.1194 0.356964 22.3656C0.585524 22.6117 0.895517 22.75 1.21875 22.75H24.7812C25.1045 22.75 25.4145 22.6117 25.643 22.3656C25.8716 22.1194 26 21.7856 26 21.4375C26 21.0894 25.8716 20.7556 25.643 20.5094C25.4145 20.2633 25.1045 20.125 24.7812 20.125H1.21875Z" fill="black"/>
</g>
<defs>
<clipPath id="clip0_1163_3574">
<rect width="26" height="28" fill="white"/>
</clipPath>
</defs>
</svg>
