<svg width="20" height="20" viewBox="0 0 20 20" fill="none" xmlns="http://www.w3.org/2000/svg">
<g clip-path="url(#clip0_1157_289)">
<path d="M19.8571 6.42857C18.7143 7.71429 16.5714 9 14.2857 9C12.1429 9 10.8571 8.28571 9.71429 7.71429C8.57143 7.28571 7.42857 6.57143 5.57143 6.57143C3.85714 6.57143 2.28571 7.57143 1.42857 8.42857L0 6.71429C1.28571 5.42857 3.28571 4 5.57143 4C7.71429 4 9 4.85714 10.1429 5.28571C11.2857 5.71429 12.4286 6.57143 14.2857 6.57143C16 6.57143 17.5714 5.42857 18.4286 4.57143L19.8571 6.42857ZM20 13.8571C18.7143 15.1429 16.7143 16.5714 14.4286 16.5714C12.2857 16.5714 11 15.8571 9.85714 15.2857C8.71428 14.8571 7.57143 14 5.71429 14C4 14 2.42857 15.1429 1.57143 16L0.142857 14.1429C1.42857 12.8571 3.42857 11.4286 5.71429 11.4286C7.85714 11.4286 9.14286 12.1429 10.2857 12.7143C11.4286 13.1429 12.5714 13.8571 14.4286 13.8571C16.1429 13.8571 17.7143 12.7143 18.5714 11.8571L20 13.8571Z" fill="black"/>
</g>
<defs>
<clipPath id="clip0_1157_289">
<rect width="20" height="20" fill="white"/>
</clipPath>
</defs>
</svg>
