<svg width="20" height="20" viewBox="0 0 20 20" fill="none" xmlns="http://www.w3.org/2000/svg">
<g clip-path="url(#clip0_1157_297)">
<path d="M10.0134 1.16981L9.63636 0.950488L9.25929 1.16981L1.98656 5.39981L1.75 5.53739V5.43235L9.63636 0.866564L17.5227 5.43235V5.5374L17.2862 5.39981L10.0134 1.16981ZM1.75 14.5675V14.4625L1.98656 14.6001L9.25929 18.8301L9.63636 19.0494L10.0134 18.8301L17.2862 14.6001L17.5227 14.4625V14.5675L9.63636 19.1333L1.75 14.5675ZM9.63636 12.8863C8.87085 12.8863 8.13669 12.5822 7.5954 12.0409C7.0541 11.4996 6.75 10.7655 6.75 9.99994C6.75 9.23443 7.0541 8.50027 7.5954 7.95897C8.13669 7.41767 8.87085 7.11358 9.63636 7.11358C10.4019 7.11358 11.136 7.41767 11.6773 7.95897C12.2186 8.50027 12.5227 9.23443 12.5227 9.99994C12.5227 10.7655 12.2186 11.4996 11.6773 12.0409C11.136 12.5822 10.4019 12.8863 9.63636 12.8863Z" stroke="black" stroke-width="1.5"/>
</g>
<defs>
<clipPath id="clip0_1157_297">
<rect width="20" height="20" fill="white"/>
</clipPath>
</defs>
</svg>
